<mxfile host="app.diagrams.net" agent="Mozilla/5.0 (Macintosh; Intel Mac OS X 10_15_7) AppleWebKit/537.36 (KHTML, like Gecko) Chrome/137.0.0.0 Safari/537.36" version="27.1.6">
  <diagram name="Page-1" id="iT3RzEeXx9VW5VFDdUh9">
    <mxGraphModel grid="1" page="1" gridSize="10" guides="1" tooltips="1" connect="1" arrows="1" fold="1" pageScale="1" pageWidth="1169" pageHeight="827" math="0" shadow="0">
      <root>
        <mxCell id="0" />
        <mxCell id="1" parent="0" />
        <mxCell id="P7UQA2KAWYmOm_r0wVQN-2" value="" style="rounded=0;whiteSpace=wrap;html=1;direction=south;" vertex="1" parent="1">
          <mxGeometry x="20" y="30" width="120" height="840" as="geometry" />
        </mxCell>
        <mxCell id="P7UQA2KAWYmOm_r0wVQN-4" value="" style="whiteSpace=wrap;html=1;" vertex="1" parent="1">
          <mxGeometry x="20" y="140" width="120" height="60" as="geometry" />
        </mxCell>
        <mxCell id="P7UQA2KAWYmOm_r0wVQN-5" value="" style="rounded=1;whiteSpace=wrap;html=1;" vertex="1" parent="1">
          <mxGeometry x="20" y="100" width="120" height="350" as="geometry" />
        </mxCell>
        <mxCell id="P7UQA2KAWYmOm_r0wVQN-7" value="" style="rounded=1;whiteSpace=wrap;html=1;" vertex="1" parent="1">
          <mxGeometry x="20" y="540" width="120" height="250" as="geometry" />
        </mxCell>
        <mxCell id="P7UQA2KAWYmOm_r0wVQN-8" value="" style="shape=cylinder3;whiteSpace=wrap;html=1;boundedLbl=1;backgroundOutline=1;size=15;" vertex="1" parent="1">
          <mxGeometry x="50" y="240" width="60" height="70" as="geometry" />
        </mxCell>
        <mxCell id="P7UQA2KAWYmOm_r0wVQN-9" value="" style="rounded=0;whiteSpace=wrap;html=1;" vertex="1" parent="1">
          <mxGeometry x="30" y="140" width="100" height="60" as="geometry" />
        </mxCell>
        <mxCell id="P7UQA2KAWYmOm_r0wVQN-10" value="" style="shape=cylinder3;whiteSpace=wrap;html=1;boundedLbl=1;backgroundOutline=1;size=15;direction=south;" vertex="1" parent="1">
          <mxGeometry x="40" y="360" width="80" height="60" as="geometry" />
        </mxCell>
        <mxCell id="P7UQA2KAWYmOm_r0wVQN-12" value="SaaS&lt;div&gt;Systems&lt;/div&gt;" style="text;html=1;align=center;verticalAlign=middle;whiteSpace=wrap;rounded=0;" vertex="1" parent="1">
          <mxGeometry x="50" y="155" width="60" height="30" as="geometry" />
        </mxCell>
        <mxCell id="P7UQA2KAWYmOm_r0wVQN-13" value="Database" style="text;html=1;align=center;verticalAlign=middle;whiteSpace=wrap;rounded=0;" vertex="1" parent="1">
          <mxGeometry x="50" y="310" width="60" height="30" as="geometry" />
        </mxCell>
        <mxCell id="P7UQA2KAWYmOm_r0wVQN-14" value="Topics/Queues" style="text;html=1;align=center;verticalAlign=middle;whiteSpace=wrap;rounded=0;" vertex="1" parent="1">
          <mxGeometry x="50" y="420" width="60" height="30" as="geometry" />
        </mxCell>
        <mxCell id="P7UQA2KAWYmOm_r0wVQN-15" value="" style="ellipse;whiteSpace=wrap;html=1;aspect=fixed;" vertex="1" parent="1">
          <mxGeometry x="45" y="560" width="70" height="70" as="geometry" />
        </mxCell>
        <mxCell id="P7UQA2KAWYmOm_r0wVQN-16" value="API" style="text;html=1;align=center;verticalAlign=middle;whiteSpace=wrap;rounded=0;" vertex="1" parent="1">
          <mxGeometry x="47.5" y="577.5" width="65" height="35" as="geometry" />
        </mxCell>
        <mxCell id="P7UQA2KAWYmOm_r0wVQN-18" value="" style="shape=note;whiteSpace=wrap;html=1;backgroundOutline=1;darkOpacity=0.05;" vertex="1" parent="1">
          <mxGeometry x="50" y="660" width="60" height="80" as="geometry" />
        </mxCell>
        <mxCell id="P7UQA2KAWYmOm_r0wVQN-20" value="Files" style="text;html=1;align=center;verticalAlign=middle;whiteSpace=wrap;rounded=0;" vertex="1" parent="1">
          <mxGeometry x="50" y="740" width="60" height="30" as="geometry" />
        </mxCell>
        <mxCell id="P7UQA2KAWYmOm_r0wVQN-21" value="" style="rounded=1;whiteSpace=wrap;html=1;direction=south;" vertex="1" parent="1">
          <mxGeometry x="170" y="60" width="150" height="750" as="geometry" />
        </mxCell>
        <mxCell id="P7UQA2KAWYmOm_r0wVQN-22" value="Sources" style="text;html=1;align=center;verticalAlign=middle;whiteSpace=wrap;rounded=0;" vertex="1" parent="1">
          <mxGeometry x="43" y="20" width="72" height="50" as="geometry" />
        </mxCell>
        <mxCell id="P7UQA2KAWYmOm_r0wVQN-23" value="" style="rounded=1;whiteSpace=wrap;html=1;direction=south;" vertex="1" parent="1">
          <mxGeometry x="190" y="125" width="100" height="335" as="geometry" />
        </mxCell>
        <mxCell id="P7UQA2KAWYmOm_r0wVQN-24" value="" style="rounded=1;whiteSpace=wrap;html=1;direction=south;" vertex="1" parent="1">
          <mxGeometry x="180" y="540" width="130" height="240" as="geometry" />
        </mxCell>
        <mxCell id="P7UQA2KAWYmOm_r0wVQN-25" value="INGESTION" style="text;html=1;align=center;verticalAlign=middle;whiteSpace=wrap;rounded=0;" vertex="1" parent="1">
          <mxGeometry x="211" y="60" width="60" height="30" as="geometry" />
        </mxCell>
        <mxCell id="P7UQA2KAWYmOm_r0wVQN-26" value="Real Time" style="text;html=1;align=center;verticalAlign=middle;whiteSpace=wrap;rounded=0;" vertex="1" parent="1">
          <mxGeometry x="210" y="95" width="60" height="30" as="geometry" />
        </mxCell>
        <mxCell id="P7UQA2KAWYmOm_r0wVQN-28" value="" style="whiteSpace=wrap;html=1;aspect=fixed;" vertex="1" parent="1">
          <mxGeometry x="206" y="140" width="70" height="70" as="geometry" />
        </mxCell>
        <mxCell id="P7UQA2KAWYmOm_r0wVQN-31" value="" style="whiteSpace=wrap;html=1;aspect=fixed;" vertex="1" parent="1">
          <mxGeometry x="206" y="257.5" width="70" height="70" as="geometry" />
        </mxCell>
        <mxCell id="P7UQA2KAWYmOm_r0wVQN-32" value="" style="whiteSpace=wrap;html=1;aspect=fixed;" vertex="1" parent="1">
          <mxGeometry x="206" y="360" width="70" height="70" as="geometry" />
        </mxCell>
        <mxCell id="P7UQA2KAWYmOm_r0wVQN-33" value="Amazon&lt;div&gt;AppFlow&lt;/div&gt;" style="text;html=1;align=center;verticalAlign=middle;whiteSpace=wrap;rounded=0;" vertex="1" parent="1">
          <mxGeometry x="211" y="160" width="60" height="30" as="geometry" />
        </mxCell>
        <mxCell id="P7UQA2KAWYmOm_r0wVQN-36" value="AWS DMS" style="text;html=1;align=center;verticalAlign=middle;whiteSpace=wrap;rounded=0;" vertex="1" parent="1">
          <mxGeometry x="211" y="277.5" width="60" height="30" as="geometry" />
        </mxCell>
        <mxCell id="P7UQA2KAWYmOm_r0wVQN-37" value="AWS&lt;div&gt;Fargate&lt;/div&gt;" style="text;html=1;align=center;verticalAlign=middle;whiteSpace=wrap;rounded=0;" vertex="1" parent="1">
          <mxGeometry x="211" y="380" width="60" height="30" as="geometry" />
        </mxCell>
        <mxCell id="P7UQA2KAWYmOm_r0wVQN-41" value="" style="rounded=0;whiteSpace=wrap;html=1;" vertex="1" parent="1">
          <mxGeometry x="360" y="60" width="680" height="60" as="geometry" />
        </mxCell>
        <mxCell id="P7UQA2KAWYmOm_r0wVQN-44" value="" style="rounded=0;whiteSpace=wrap;html=1;" vertex="1" parent="1">
          <mxGeometry x="360" y="180" width="670" height="60" as="geometry" />
        </mxCell>
        <mxCell id="P7UQA2KAWYmOm_r0wVQN-46" value="" style="whiteSpace=wrap;html=1;aspect=fixed;" vertex="1" parent="1">
          <mxGeometry x="180" y="565" width="60" height="60" as="geometry" />
        </mxCell>
        <mxCell id="P7UQA2KAWYmOm_r0wVQN-47" value="" style="whiteSpace=wrap;html=1;aspect=fixed;" vertex="1" parent="1">
          <mxGeometry x="250" y="635" width="60" height="60" as="geometry" />
        </mxCell>
        <mxCell id="P7UQA2KAWYmOm_r0wVQN-48" value="" style="whiteSpace=wrap;html=1;aspect=fixed;" vertex="1" parent="1">
          <mxGeometry x="180" y="715" width="65" height="65" as="geometry" />
        </mxCell>
        <mxCell id="P7UQA2KAWYmOm_r0wVQN-49" value="AWS Lambda&lt;div&gt;API Client&lt;/div&gt;" style="text;html=1;align=center;verticalAlign=middle;whiteSpace=wrap;rounded=0;" vertex="1" parent="1">
          <mxGeometry x="180" y="582.5" width="60" height="30" as="geometry" />
        </mxCell>
        <mxCell id="P7UQA2KAWYmOm_r0wVQN-50" value="Amazon S3&amp;nbsp;&lt;span style=&quot;background-color: transparent; color: light-dark(rgb(0, 0, 0), rgb(255, 255, 255));&quot;&gt;Landing&lt;/span&gt;" style="text;html=1;align=center;verticalAlign=middle;whiteSpace=wrap;rounded=0;" vertex="1" parent="1">
          <mxGeometry x="250" y="650" width="60" height="30" as="geometry" />
        </mxCell>
        <mxCell id="P7UQA2KAWYmOm_r0wVQN-51" value="AWS Glue" style="text;html=1;align=center;verticalAlign=middle;whiteSpace=wrap;rounded=0;" vertex="1" parent="1">
          <mxGeometry x="182.5" y="732.5" width="60" height="30" as="geometry" />
        </mxCell>
        <mxCell id="P7UQA2KAWYmOm_r0wVQN-52" value="JOB ORCHESTRATIONS" style="text;html=1;align=center;verticalAlign=middle;whiteSpace=wrap;rounded=0;" vertex="1" parent="1">
          <mxGeometry x="370" y="75" width="170" height="30" as="geometry" />
        </mxCell>
        <mxCell id="P7UQA2KAWYmOm_r0wVQN-53" value="DATA PIPELINES" style="text;html=1;align=center;verticalAlign=middle;whiteSpace=wrap;rounded=0;" vertex="1" parent="1">
          <mxGeometry x="370" y="197.5" width="156" height="30" as="geometry" />
        </mxCell>
        <mxCell id="P7UQA2KAWYmOm_r0wVQN-54" value="Amazon MWAA" style="text;html=1;align=center;verticalAlign=middle;whiteSpace=wrap;rounded=0;" vertex="1" parent="1">
          <mxGeometry x="620" y="75" width="120" height="30" as="geometry" />
        </mxCell>
        <mxCell id="P7UQA2KAWYmOm_r0wVQN-55" value="dbt" style="text;html=1;align=center;verticalAlign=middle;whiteSpace=wrap;rounded=0;" vertex="1" parent="1">
          <mxGeometry x="655" y="200" width="60" height="30" as="geometry" />
        </mxCell>
        <mxCell id="P7UQA2KAWYmOm_r0wVQN-56" value="" style="rounded=1;whiteSpace=wrap;html=1;" vertex="1" parent="1">
          <mxGeometry x="360" y="292.5" width="610" height="387.5" as="geometry" />
        </mxCell>
        <mxCell id="P7UQA2KAWYmOm_r0wVQN-57" value="ENTERPRISE DATA WAREHOUSE" style="text;html=1;align=center;verticalAlign=middle;whiteSpace=wrap;rounded=0;" vertex="1" parent="1">
          <mxGeometry x="555" y="310" width="220" height="30" as="geometry" />
        </mxCell>
        <mxCell id="P7UQA2KAWYmOm_r0wVQN-58" value="(REDSHIFT)" style="text;html=1;align=center;verticalAlign=middle;whiteSpace=wrap;rounded=0;" vertex="1" parent="1">
          <mxGeometry x="620" y="330" width="90" height="30" as="geometry" />
        </mxCell>
        <mxCell id="P7UQA2KAWYmOm_r0wVQN-88" style="edgeStyle=none;curved=1;rounded=0;orthogonalLoop=1;jettySize=auto;html=1;exitX=1;exitY=0.5;exitDx=0;exitDy=0;entryX=0.5;entryY=1;entryDx=0;entryDy=0;fontSize=12;startSize=8;endSize=8;" edge="1" parent="1" source="P7UQA2KAWYmOm_r0wVQN-59" target="P7UQA2KAWYmOm_r0wVQN-60">
          <mxGeometry relative="1" as="geometry" />
        </mxCell>
        <mxCell id="P7UQA2KAWYmOm_r0wVQN-59" value="" style="rounded=1;whiteSpace=wrap;html=1;" vertex="1" parent="1">
          <mxGeometry x="430" y="370" width="120" height="242.5" as="geometry" />
        </mxCell>
        <mxCell id="P7UQA2KAWYmOm_r0wVQN-60" value="" style="rounded=1;whiteSpace=wrap;html=1;direction=south;" vertex="1" parent="1">
          <mxGeometry x="600" y="370" width="110" height="240" as="geometry" />
        </mxCell>
        <mxCell id="P7UQA2KAWYmOm_r0wVQN-61" value="" style="rounded=1;whiteSpace=wrap;html=1;" vertex="1" parent="1">
          <mxGeometry x="770" y="366.25" width="110" height="243.75" as="geometry" />
        </mxCell>
        <mxCell id="P7UQA2KAWYmOm_r0wVQN-62" value="Landing&lt;div&gt;Schema&lt;/div&gt;" style="text;html=1;align=center;verticalAlign=middle;whiteSpace=wrap;rounded=0;" vertex="1" parent="1">
          <mxGeometry x="440" y="446.25" width="90" height="80" as="geometry" />
        </mxCell>
        <mxCell id="P7UQA2KAWYmOm_r0wVQN-63" value="CDS&lt;div&gt;(Certified&lt;/div&gt;&lt;div&gt;Data Set)&lt;/div&gt;&lt;div&gt;Schema&lt;/div&gt;" style="text;html=1;align=center;verticalAlign=middle;whiteSpace=wrap;rounded=0;" vertex="1" parent="1">
          <mxGeometry x="620" y="450" width="70" height="60" as="geometry" />
        </mxCell>
        <mxCell id="P7UQA2KAWYmOm_r0wVQN-64" value="UFDM&lt;div&gt;(User&amp;nbsp;&lt;/div&gt;&lt;div&gt;Friendly&lt;/div&gt;&lt;div&gt;Data mart)&lt;/div&gt;&lt;div&gt;Schema&lt;/div&gt;" style="text;html=1;align=center;verticalAlign=middle;whiteSpace=wrap;rounded=0;" vertex="1" parent="1">
          <mxGeometry x="795" y="465" width="60" height="30" as="geometry" />
        </mxCell>
        <mxCell id="P7UQA2KAWYmOm_r0wVQN-65" value="" style="whiteSpace=wrap;html=1;aspect=fixed;" vertex="1" parent="1">
          <mxGeometry x="627.5" y="635" width="75" height="75" as="geometry" />
        </mxCell>
        <mxCell id="P7UQA2KAWYmOm_r0wVQN-66" value="Amazon&amp;nbsp;&lt;div&gt;Redshift&lt;/div&gt;" style="text;html=1;align=center;verticalAlign=middle;whiteSpace=wrap;rounded=0;" vertex="1" parent="1">
          <mxGeometry x="635" y="660" width="60" height="30" as="geometry" />
        </mxCell>
        <mxCell id="P7UQA2KAWYmOm_r0wVQN-67" value="" style="rounded=0;whiteSpace=wrap;html=1;" vertex="1" parent="1">
          <mxGeometry x="1080" y="60" width="120" height="620" as="geometry" />
        </mxCell>
        <mxCell id="P7UQA2KAWYmOm_r0wVQN-68" value="CONSUMPTION" style="text;html=1;align=center;verticalAlign=middle;whiteSpace=wrap;rounded=0;" vertex="1" parent="1">
          <mxGeometry x="1110" y="70" width="60" height="30" as="geometry" />
        </mxCell>
        <mxCell id="P7UQA2KAWYmOm_r0wVQN-69" value="" style="whiteSpace=wrap;html=1;aspect=fixed;" vertex="1" parent="1">
          <mxGeometry x="1100" y="430" width="80" height="80" as="geometry" />
        </mxCell>
        <mxCell id="P7UQA2KAWYmOm_r0wVQN-70" value="Amazon&lt;div&gt;QuickSight&lt;/div&gt;" style="text;html=1;align=center;verticalAlign=middle;whiteSpace=wrap;rounded=0;" vertex="1" parent="1">
          <mxGeometry x="1100" y="460" width="80" height="30" as="geometry" />
        </mxCell>
        <mxCell id="P7UQA2KAWYmOm_r0wVQN-71" value="" style="html=1;shadow=0;dashed=0;align=center;verticalAlign=middle;shape=mxgraph.arrows2.arrow;dy=0.6;dx=40;notch=0;direction=south;" vertex="1" parent="1">
          <mxGeometry x="650" y="125" width="70" height="55" as="geometry" />
        </mxCell>
        <mxCell id="P7UQA2KAWYmOm_r0wVQN-73" value="" style="html=1;shadow=0;dashed=0;align=center;verticalAlign=middle;shape=mxgraph.arrows2.arrow;dy=0.6;dx=40;notch=0;direction=south;" vertex="1" parent="1">
          <mxGeometry x="655" y="240" width="70" height="50" as="geometry" />
        </mxCell>
        <mxCell id="P7UQA2KAWYmOm_r0wVQN-74" style="edgeStyle=none;curved=1;rounded=0;orthogonalLoop=1;jettySize=auto;html=1;exitX=1;exitY=0.5;exitDx=0;exitDy=0;entryX=0.014;entryY=0.4;entryDx=0;entryDy=0;entryPerimeter=0;fontSize=12;startSize=8;endSize=8;" edge="1" parent="1" source="P7UQA2KAWYmOm_r0wVQN-9" target="P7UQA2KAWYmOm_r0wVQN-28">
          <mxGeometry relative="1" as="geometry" />
        </mxCell>
        <mxCell id="P7UQA2KAWYmOm_r0wVQN-77" style="edgeStyle=none;curved=1;rounded=0;orthogonalLoop=1;jettySize=auto;html=1;exitX=1;exitY=0.5;exitDx=0;exitDy=0;exitPerimeter=0;entryX=-0.014;entryY=0.421;entryDx=0;entryDy=0;entryPerimeter=0;fontSize=12;startSize=8;endSize=8;" edge="1" parent="1" source="P7UQA2KAWYmOm_r0wVQN-8" target="P7UQA2KAWYmOm_r0wVQN-31">
          <mxGeometry relative="1" as="geometry" />
        </mxCell>
        <mxCell id="P7UQA2KAWYmOm_r0wVQN-80" style="edgeStyle=none;curved=1;rounded=0;orthogonalLoop=1;jettySize=auto;html=1;exitX=0.5;exitY=0;exitDx=0;exitDy=0;exitPerimeter=0;entryX=0.057;entryY=0.857;entryDx=0;entryDy=0;entryPerimeter=0;fontSize=12;startSize=8;endSize=8;" edge="1" parent="1" source="P7UQA2KAWYmOm_r0wVQN-10" target="P7UQA2KAWYmOm_r0wVQN-32">
          <mxGeometry relative="1" as="geometry" />
        </mxCell>
        <mxCell id="P7UQA2KAWYmOm_r0wVQN-81" style="edgeStyle=none;curved=1;rounded=0;orthogonalLoop=1;jettySize=auto;html=1;exitX=1;exitY=0.5;exitDx=0;exitDy=0;entryX=0.15;entryY=1;entryDx=0;entryDy=0;entryPerimeter=0;fontSize=12;startSize=8;endSize=8;" edge="1" parent="1" source="P7UQA2KAWYmOm_r0wVQN-16" target="P7UQA2KAWYmOm_r0wVQN-46">
          <mxGeometry relative="1" as="geometry" />
        </mxCell>
        <mxCell id="P7UQA2KAWYmOm_r0wVQN-82" style="edgeStyle=none;curved=1;rounded=0;orthogonalLoop=1;jettySize=auto;html=1;exitX=0;exitY=0;exitDx=60;exitDy=55;exitPerimeter=0;entryX=0.108;entryY=0.062;entryDx=0;entryDy=0;entryPerimeter=0;fontSize=12;startSize=8;endSize=8;" edge="1" parent="1" source="P7UQA2KAWYmOm_r0wVQN-18" target="P7UQA2KAWYmOm_r0wVQN-48">
          <mxGeometry relative="1" as="geometry" />
        </mxCell>
        <mxCell id="P7UQA2KAWYmOm_r0wVQN-83" value="Batch" style="text;html=1;align=center;verticalAlign=middle;whiteSpace=wrap;rounded=0;" vertex="1" parent="1">
          <mxGeometry x="210" y="510" width="60" height="30" as="geometry" />
        </mxCell>
        <mxCell id="P7UQA2KAWYmOm_r0wVQN-86" style="edgeStyle=none;curved=1;rounded=0;orthogonalLoop=1;jettySize=auto;html=1;exitX=1;exitY=0.5;exitDx=0;exitDy=0;entryX=0.025;entryY=0.913;entryDx=0;entryDy=0;entryPerimeter=0;fontSize=12;startSize=8;endSize=8;" edge="1" parent="1" source="P7UQA2KAWYmOm_r0wVQN-61" target="P7UQA2KAWYmOm_r0wVQN-69">
          <mxGeometry relative="1" as="geometry" />
        </mxCell>
        <mxCell id="P7UQA2KAWYmOm_r0wVQN-87" style="edgeStyle=none;curved=1;rounded=0;orthogonalLoop=1;jettySize=auto;html=1;exitX=0.5;exitY=0;exitDx=0;exitDy=0;entryX=0.009;entryY=0.582;entryDx=0;entryDy=0;entryPerimeter=0;fontSize=12;startSize=8;endSize=8;" edge="1" parent="1" source="P7UQA2KAWYmOm_r0wVQN-60" target="P7UQA2KAWYmOm_r0wVQN-61">
          <mxGeometry relative="1" as="geometry" />
        </mxCell>
        <mxCell id="P7UQA2KAWYmOm_r0wVQN-90" style="edgeStyle=none;curved=1;rounded=0;orthogonalLoop=1;jettySize=auto;html=1;exitX=1;exitY=0.5;exitDx=0;exitDy=0;entryX=-0.002;entryY=0.727;entryDx=0;entryDy=0;entryPerimeter=0;fontSize=12;startSize=8;endSize=8;" edge="1" parent="1" source="P7UQA2KAWYmOm_r0wVQN-50" target="P7UQA2KAWYmOm_r0wVQN-59">
          <mxGeometry relative="1" as="geometry" />
        </mxCell>
        <mxCell id="P7UQA2KAWYmOm_r0wVQN-91" style="edgeStyle=none;curved=1;rounded=0;orthogonalLoop=1;jettySize=auto;html=1;exitX=0.5;exitY=0;exitDx=0;exitDy=0;entryX=0.014;entryY=0.37;entryDx=0;entryDy=0;entryPerimeter=0;fontSize=12;startSize=8;endSize=8;" edge="1" parent="1" source="P7UQA2KAWYmOm_r0wVQN-23" target="P7UQA2KAWYmOm_r0wVQN-59">
          <mxGeometry relative="1" as="geometry" />
        </mxCell>
      </root>
    </mxGraphModel>
  </diagram>
</mxfile>
